<svg xmlns="http://www.w3.org/2000/svg" width="200" height="200" viewBox="0 0 200 200">
  <rect width="200" height="200" fill="#fff"/>
  <rect x="20" y="20" width="40" height="40" fill="#333"/>
  <rect x="25" y="25" width="30" height="30" fill="#fff"/>
  <rect x="30" y="30" width="20" height="20" fill="#333"/>
  <rect x="140" y="20" width="40" height="40" fill="#333"/>
  <rect x="145" y="25" width="30" height="30" fill="#fff"/>
  <rect x="150" y="30" width="20" height="20" fill="#333"/>
  <rect x="20" y="140" width="40" height="40" fill="#333"/>
  <rect x="25" y="145" width="30" height="30" fill="#fff"/>
  <rect x="30" y="150" width="20" height="20" fill="#333"/>
  <rect x="70" y="20" width="10" height="10" fill="#333"/>
  <rect x="90" y="20" width="10" height="10" fill="#333"/>
  <rect x="110" y="20" width="10" height="10" fill="#333"/>
  <rect x="70" y="40" width="10" height="10" fill="#333"/>
  <rect x="90" y="40" width="10" height="10" fill="#333"/>
  <rect x="110" y="40" width="10" height="10" fill="#333"/>
  <rect x="70" y="70" width="60" height="60" fill="#333"/>
  <rect x="80" y="80" width="40" height="40" fill="#fff"/>
  <rect x="90" y="90" width="20" height="20" fill="#333"/>
  <rect x="20" y="70" width="10" height="10" fill="#333"/>
  <rect x="40" y="70" width="10" height="10" fill="#333"/>
  <rect x="20" y="90" width="10" height="10" fill="#333"/>
  <rect x="40" y="90" width="10" height="10" fill="#333"/>
  <rect x="20" y="110" width="10" height="10" fill="#333"/>
  <rect x="40" y="110" width="10" height="10" fill="#333"/>
  <rect x="70" y="140" width="10" height="10" fill="#333"/>
  <rect x="90" y="140" width="10" height="10" fill="#333"/>
  <rect x="110" y="140" width="10" height="10" fill="#333"/>
  <rect x="140" y="70" width="10" height="10" fill="#333"/>
  <rect x="160" y="70" width="10" height="10" fill="#333"/>
  <rect x="140" y="90" width="10" height="10" fill="#333"/>
  <rect x="160" y="90" width="10" height="10" fill="#333"/>
  <rect x="140" y="110" width="10" height="10" fill="#333"/>
  <rect x="160" y="110" width="10" height="10" fill="#333"/>
  <rect x="140" y="140" width="10" height="10" fill="#333"/>
  <rect x="160" y="160" width="10" height="10" fill="#333"/>
  <text x="100" y="195" font-size="10" fill="#333" text-anchor="middle">请替换为真实收款码</text>
</svg>